<svg xmlns="http://www.w3.org/2000/svg" viewBox="0 0 150 32">
   <path fill="#969696" d="m149.51 16.426l-26.97 15.573 9.31-15.573z"/>
   <path fill="#afafaf" d="M149.51,15.574,122.54,0l9.312,15.574h17.661"/>
   <path fill="#969696" d="m119 16.426l-26.972 15.573 9.312-15.573z"/>
   <path fill="#afafaf" d="M119,15.574,92.028,0.001,101.34,15.574h17.661"/>
   <path fill="#969696" d="m88.49 16.426l-26.973 15.573 9.312-15.573z"/>
   <path fill="#afafaf" d="M88.491,15.574,61.519,0,70.831,15.574h17.66"/>
   <path fill="#969696" d="M57.971,16.426,30.998,31.999,40.31,16.426z"/>
   <path fill="#afafaf" d="M57.975,15.574,31.001,0.0005l9.312,15.573h17.664"/>
   <path fill="#969696" d="M27.461,16.426,0.488,31.999,9.8,16.426z"/>
   <path fill="#afafaf" d="M27.461,15.574,0.491,0,9.801,15.574h17.661"/>
</svg>