<svg xmlns="http://www.w3.org/2000/svg" viewBox="0 0 150 32">
   <path fill="#969696" d="m.488 16.426l26.973 15.573-9.312-15.573z"/>
   <path fill="#afafaf" d="m.488 15.574l26.973-15.574-9.312 15.574h-17.661"/>
   <path d="m31 16.426l26.973 15.573-9.312-15.573z" fill="#969696"/>
   <path d="m31 15.574l26.973-15.573-9.312 15.573h-17.661" fill="#afafaf"/>
   <path fill="#969696" d="m61.51 16.426l26.973 15.573-9.312-15.573z"/>
   <path fill="#afafaf" d="m61.51 15.574l26.972-15.574-9.312 15.574h-17.66"/>
   <path d="m92.03 16.426l26.973 15.573-9.312-15.573z" fill="#969696"/>
   <path d="M92.026,15.574,119,0.0005l-9.312,15.573h-17.664" fill="#afafaf"/>
   <path fill="#969696" d="m122.54 16.426l26.973 15.573-9.312-15.573z"/>
   <path fill="#afafaf" d="m122.54 15.574l26.97-15.574-9.31 15.574h-17.661"/>
</svg>