<svg xmlns="http://www.w3.org/2000/svg" width="20" height="20" viewBox="0 0 475.082 475.081" enable-background="new 0 0 475.082 475.081"><path d="m469.66 133.33l-109.63-109.63c-3.621-3.617-7.909-5.424-12.854-5.424-2.275 0-4.661.476-7.132 1.425-7.426 3.237-11.139 8.852-11.139 16.846v54.821h-45.683c-20.17 0-38.879 1.047-56.1 3.14-17.224 2.092-32.404 4.993-45.537 8.708-13.13 3.708-24.983 8.326-35.547 13.846-10.562 5.518-19.555 11.372-26.98 17.559-7.426 6.186-13.943 13.23-19.558 21.13-5.618 7.898-10.09 15.653-13.422 23.267-3.328 7.616-5.992 15.99-7.992 25.13-2 9.137-3.333 17.701-3.999 25.693-.666 7.994-.999 16.657-.999 25.979 0 10.663 1.668 22.271 4.998 34.838 3.331 12.559 6.995 23.407 10.992 32.545 3.996 9.13 8.709 18.603 14.13 28.403 5.424 9.802 9.182 16.317 11.276 19.555 2.093 3.23 4.095 6.187 5.997 8.85 1.903 2.474 4.377 3.71 7.421 3.71.765 0 1.902-.186 3.427-.568 4.377-2.095 6.279-5.325 5.708-9.705-8.564-63.954-1.52-108.97 21.13-135.05 21.892-24.934 63.57-37.4 125.05-37.4h45.686v54.816c0 8 3.71 13.613 11.136 16.851 2.471.951 4.853 1.424 7.132 1.424 5.14 0 9.425-1.807 12.854-5.421l109.63-109.64c3.613-3.619 5.424-7.898 5.424-12.847-.01-4.94-1.82-9.23-5.43-12.84z"/><path d="m396 292.36c-3.625-1.529-6.951-.763-9.993 2.283-4.948 4.568-10.09 8.093-15.42 10.564-3.433 1.902-5.141 4.66-5.141 8.277v61.1c0 12.562-4.466 23.308-13.415 32.26-8.945 8.946-19.704 13.419-32.26 13.419h-237.56c-12.564 0-23.318-4.473-32.26-13.419-8.947-8.952-13.418-19.697-13.418-32.26v-237.54c0-12.563 4.471-23.313 13.418-32.26 8.945-8.947 19.699-13.418 32.26-13.418h31.977c1.141 0 2.666-.383 4.568-1.143 10.66-6.473 23.313-12.185 37.972-17.13 4.949-.95 7.423-3.994 7.423-9.136 0-2.474-.903-4.611-2.712-6.423-1.809-1.804-3.946-2.708-6.423-2.708h-72.804c-22.65 0-42.02 8.04-58.1 24.13-16.08 16.08-24.12 35.446-24.12 58.1v237.54c0 22.651 8.04 42.02 24.13 58.1 16.08 16.08 35.452 24.13 58.1 24.13h237.54c22.647 0 42.02-8.04 58.1-24.13 16.08-16.08 24.13-35.45 24.13-58.1v-73.946c0-3.8-2-6.56-6-8.27z"/></svg>