<svg xmlns="http://www.w3.org/2000/svg" height="20" width="20" enable-background="new 0 0 123.062 123.062" viewBox="0 0 123.062 123.062">
   <g vector-effect="non-scaling-stroke" style="stroke:#000; stroke-width:1.5; fill:#7ffd2a; opacity:1.0">
      <circle cy="13.244" cx="31.942" r="13.244"/>
      <circle cy="13.248" cx="75.72" r="13.244"/>
      <path d="m84.05 106.49l.005 9.567c.002 3.871 3.141 7.01 7.01 7.01h.004c3.871-.002 7.01-3.145 7.01-7.02l-.005-9.559-14.02.002"/>
      <path d="m107.41 75.33c-.436-2.573-2.327-4.641-4.786-5.372.027-.425.02-.854-.065-1.291-.656-3.352-8.698-34.911-8.698-34.911-1.141-5.323-4.825-7.881-9.411-8.01l-.039.002s-1.615.009-3.01.274c-1.458.278-2.735.979-2.735.979-3.38 1.64-6.612 5.03-7.01 9.141-.053.198-.118.39-.147.599-.893 6.283-1.786 10.265-3.711 12.02-1.985 1.806-6.445 2.612-14.459 2.612-1.855 0-3.466.991-4.371 2.466-4.836-.987-7.69-2.239-9.197-3.984-1.958-2.262-2.671-6.464-3.616-13.11-.029-.209-.095-.403-.147-.6-.396-4.112-3.629-7.502-7.01-9.141 0 0-1.277-.701-2.733-.98-1.395-.266-3.01-.273-3.01-.273l-.039-.003c-4.586.133-9.985 2.688-11.127 8.02l-6.128 28.585c-.816 3.817.891 7.233 3.652 9.592l-.027 44.11c-.002 3.873 3.136 7.01 7.01 7.02h.004c3.87 0 7.01-3.138 7.01-7.01l.025-41.74c2.897-1.152 5.346-3.391 6.094-6.881l2.319-10.821c3.689 4.307 9.781 6.776 20.644 8.263.236.032.471.051.704.051 2.167 0 4.088-1.379 4.818-3.395 8.504-.449 13.78-2.2 17.209-5.808l2.51 11.716c.65 3.03 2.588 5.117 4.987 6.369h3.336c.717-2.02 2.168-3.688 4.078-4.683-1.74-8.297-4.154-16.455-6.23-21.414-1.415-2.603.561-3.5 1.614-.799 1.053 2.703 4.99 15.01 6.603 23.06-2.43.748-4.292 2.803-4.723 5.355h-9.901v29.25h39.613v-29.25h-9.898m-16.273 0c.407-1.129 1.388-1.981 2.594-2.19.957 1.031 2.313 1.662 3.769 1.662.326 0 .659-.033.992-.1 1.114-.218 2.064-.79 2.781-1.566 1.207.211 2.189 1.065 2.597 2.194h-12.733"/>
   </g>
</svg>