<svg xmlns="http://www.w3.org/2000/svg" viewBox="0 0 569.161 569.16" height="20" width="20">
   <path d="m223.1 477.36h-119.34v-385.56h119.34c25.355 0 45.9-20.551 45.9-45.9s-20.55-45.9-45.9-45.9h-122.4c-48.929 0-88.74 39.811-88.74 88.74v391.68c0 48.93 39.811 88.74 88.74 88.74h122.4c25.355 0 45.9-20.545 45.9-45.9 0-25.36-20.55-45.9-45.9-45.9"/><path d="m360.86 72.79c-14.566-14.566-26.371-9.676-26.371 10.924v70.777h-146c-8.237 0-14.92 6.677-14.92 14.921v230.33c0 8.237 6.683 14.921 14.92 14.921h146.01v70.777c0 20.594 11.805 25.49 26.371 10.925l185.41-185.41c14.566-14.565 14.566-38.18 0-52.748l-185.42-185.41z"/>
</svg>