<svg xmlns="http://www.w3.org/2000/svg" enable-background="new 0 0 569.16 569.16" viewBox="0 0 569.16 569.16"><path d="m117.24 0h122.4c25.355 0 45.9 20.551 45.9 45.9s-20.544 45.9-45.9 45.9h-119.34v385.56h119.34c25.355 0 45.9 20.545 45.9 45.899 0 25.355-20.544 45.9-45.9 45.9h-122.4c-48.93 0-88.74-39.811-88.74-88.74v-391.68c0-48.929 39.81-88.74 88.74-88.74z"/><path d="M167.94,258.21,353.36,72.79c14.566-14.566,26.371-9.676,26.371,10.924v70.777h146.01c8.238,0,14.92,6.677,14.92,14.921v230.33c0,8.237-6.683,14.921-14.92,14.921h-146v70.777c0,20.594-11.805,25.49-26.371,10.925l-185.42-185.42c-14.56-14.55-14.56-38.17,0-52.73z"/></svg>