<svg xmlns="http://www.w3.org/2000/svg" viewBox="0 0 28.2 12.8">
   <path d="m17.794 10.906c-.07.158-.228.258-.402.258h-2.027v1.194c0 .244-.199.44-.444.44h-1.637c-.248 0-.444-.196-.444-.44v-1.194h-2.032c-.244 0-.444-.197-.444-.44 0-.127.057-.243.142-.322l3.262-3.771c.084-.096.206-.152.332-.152.128 0 .251.054.335.152l3.288 3.805c.113.129.141.314.07.471m10.407-7.679c0 1.774-1.446 3.222-3.22 3.222h-21.755c-1.777-.002-3.223-1.447-3.223-3.222 0-1.778 1.446-3.226 3.225-3.226h21.755c1.772.001 3.217 1.446 3.218 3.226"
         style="stroke:none; fill:#000; opacity:1.0" />
</svg>