<svg xmlns="http://www.w3.org/2000/svg" height="20" width="20" enable-background="new 0 0 485.213 485.212" viewBox="0 0 485.213 485.212">
   <path d="m363.91 212.28v-90.98c0-66.87-54.4-121.3-121.3-121.3-66.884 0-121.3 54.43-121.3 121.3v90.98c-33.498 0-60.65 27.16-60.65 60.65v151.63c0 33.5 27.15 60.65 60.65 60.65h242.6c33.491 0 60.65-27.15 60.65-60.65v-151.63c.001-33.491-27.16-60.65-60.65-60.65m-106.14 146.97v50.14c0 8.382-6.781 15.16-15.16 15.16-8.382 0-15.16-6.781-15.16-15.16v-50.14c-8.9-5.269-15.16-14.57-15.16-25.673 0-16.765 13.579-30.33 30.32-30.33 16.745 0 30.33 13.562 30.33 30.33.001 11.1-6.267 20.405-15.16 25.673m45.49-146.97h-121.3v-90.98c0-33.465 27.2-60.65 60.65-60.65 33.435 0 60.65 27.19 60.65 60.65v90.98"
         vector-effect="non-scaling-stroke"
         style="stroke:#000; stroke-width:0.5; fill:#7ffd2a; opacity:1.0"/>
</svg>