<svg xmlns="http://www.w3.org/2000/svg" viewBox="0 0 569.16 569.16" height="20" width="20">
   <path d="m451.92 0h-122.4c-25.355 0-45.9 20.551-45.9 45.9s20.544 45.9 45.9 45.9h119.34v385.56h-119.34c-25.355 0-45.9 20.545-45.9 45.899 0 25.355 20.544 45.9 45.9 45.9h122.4c48.93 0 88.74-39.811 88.74-88.74v-391.68c0-48.929-39.81-88.74-88.74-88.74z"/><path d="m401.22 258.21l-185.42-185.42c-14.566-14.566-26.371-9.676-26.371 10.924v70.777h-146.01c-8.238 0-14.92 6.677-14.92 14.921v230.33c0 8.237 6.683 14.921 14.92 14.921h146v70.777c0 20.594 11.805 25.49 26.371 10.925l185.42-185.42c14.56-14.55 14.56-38.17 0-52.73z"/>
</svg>