<svg xmlns="http://www.w3.org/2000/svg" height="20" width="20" viewBox="0 0 569.161 569.16">
   <path d="m346.06 477.36h119.34v-385.56h-119.34c-25.355 0-45.9-20.551-45.9-45.9s20.55-45.9 45.9-45.9h122.4c48.929 0 88.74 39.811 88.74 88.74v391.68c0 48.93-39.811 88.74-88.74 88.74h-122.4c-25.355 0-45.9-20.545-45.9-45.9 0-25.36 20.55-45.9 45.9-45.9"/><path d="m208.3 72.79c14.566-14.566 26.371-9.676 26.371 10.924v70.777h146c8.237 0 14.92 6.677 14.92 14.921v230.33c0 8.237-6.683 14.921-14.92 14.921h-146.01v70.777c0 20.594-11.805 25.49-26.371 10.925l-185.41-185.41c-14.566-14.565-14.566-38.18 0-52.748l185.42-185.41z"/>
</svg>