<svg xmlns="http://www.w3.org/2000/svg" height="20" width="20" enable-background="new 0 0 43.028 43.028" viewBox="0 0 43.028 43.028">
   <path d="m39.561 33.971l-.145.174c-4.774 5.728-11.133 8.884-17.902 8.884-6.77 0-13.13-3.155-17.903-8.884l-.144-.174.034-.223c.922-6.01 4.064-10.845 8.847-13.606l.34-.196.271.284c2.259 2.37 5.297 3.674 8.554 3.674s6.295-1.305 8.554-3.674l.271-.284.34.196c4.783 2.761 7.925 7.592 8.848 13.606l.035.223m-18.05-12.482c5.924 0 10.744-4.82 10.744-10.744s-4.82-10.745-10.744-10.745-10.744 4.821-10.744 10.744 4.82 10.745 10.744 10.745"
         vector-effect="non-scaling-stroke"
         style="stroke:#000; stroke-width:0.5; fill:#7ffd2a; opacity:1.0"/>
</svg>