<svg xmlns="http://www.w3.org/2000/svg" viewBox="0 0 151.77 151.07"><defs><filter id="0" color-interpolation-filters="sRGB"><feGaussianBlur stdDeviation=".56625"/></filter><filter id="1" color-interpolation-filters="sRGB"><feGaussianBlur stdDeviation="1.0034"/></filter><linearGradient id="2" y2="141.59" gradientUnits="userSpaceOnUse" x2="0" y1="8.931"><stop stop-color="#969696"/><stop offset="1" stop-color="#323232"/></linearGradient><linearGradient id="3" y2="94.05" gradientUnits="userSpaceOnUse" x2="75.27" y1="64.53" x1="74.07"><stop stop-color="#c8c8c8"/><stop offset="1" stop-color="#969696"/></linearGradient></defs><path d="m151.42 75.54c.102 19.84-7.993 39.598-21.986 53.663s-33.709 22.262-53.55 22.262-39.556-8.197-53.55-22.262c-13.989-14.07-22.08-33.824-21.982-53.664-.102-19.84 7.993-39.598 21.986-53.663s33.709-22.262 53.55-22.262 39.556 8.197 53.55 22.262c13.993 14.06 22.09 33.823 21.986 53.663z" fill="#323232"/><path d="m142.49 75.54c-.134 17.351-7.373 34.542-19.69 46.764s-29.564 19.327-46.915 19.327c-17.352 0-34.599-7.105-46.915-19.327-12.317-12.22-19.556-29.413-19.69-46.764-.136-17.523 6.982-34.993 19.325-47.43s29.756-19.691 47.28-19.691 34.937 7.253 47.28 19.692c12.343 12.439 19.46 29.908 19.325 47.43z" fill="url(#2)"/><g fill="#fff"><path d="m75.902 8.929c-36.786 0-66.62 29.808-66.62 66.59 0 .293.027.583.031.875.469-36.38 30.1-65.719 66.59-65.719 36.493 0 66.09 29.337 66.56 65.719.004-.292.031-.582.031-.875 0-36.786-29.808-66.59-66.59-66.59" opacity=".35" filter="url(#1)"/><path d="m17.809 107.3c11.279 20.763 33.27 34.844 58.56 34.844 24.602 0 46.06-13.348 57.59-33.19-11.807 19.12-33.19 31.11-57.59 31.11-25.1 0-46.988-12.725-58.56-32.77" opacity=".25" filter="url(#0)"/></g><path d="m101.28 94.59h4.9v-5.25h18.2v5.25h4.9v-9.45h-3.325v-20.3h-18.375l-1.4 17.15-3.325 3.15h-1.575zm11.03-25.55h8.75v16.1h-12.25l2.275-2.1zm-20.629-.35l2.275 2.1v12.6l-2.275 2.1h-9.625l-2.275-2.1v-12.6l2.275-2.1zm-16.8.35v16.1l4.9 4.55h14.175l4.9-4.55v-16.1l-4.9-4.55h-14.175zm-11.574 7.7l9.1-11.9h-5.775l-6.475 8.575-6.475-8.575h-5.775l9.1 11.9-9.8 12.6h5.775l7.175-9.1 7.175 9.1h5.775zm-18.761-2.45v-5.775l-4.02-3.675h-18.02v24.5h19.25l4.02-3.675v-6.125l-3.5-3.325zm-17.15 10.85v-6.125h11.55l1.925 1.75v3.15l-1.4 1.225zm12.25-12.08l-1.925 1.75h-10.325v-5.775h10.85l1.4 1.225z" fill="url(#3)"/></svg>