<svg xmlns="http://www.w3.org/2000/svg" viewBox="0 0 137 93"><g transform="translate(0-959.36)" fill="#eee" stroke="#eee" stroke-linejoin="bevel"><path d="m132.46 971.41h-12.648v6.384h10.642l3.111 3.212v6.671l-3.111 3.192h-15.636l2.988-3.01h12.546v-7.04h-10.847l-2.886-2.844v-6.527l3.07-3.069h15.922zm-26.892 9.535v9.924h-3.234v-9.924l-7.757-11.234 2.64-1.719 6.692 9.986 6.631-9.986 2.722 1.719zm-16.639-15.694h-16.659v8.41h14.02l4.093 4.236v8.758l-4.093 4.215h-20.589l3.929-3.97h16.516v-9.249h-14.285l-3.807-3.765v-8.594l4.052-4.03h20.957zm-26.831 6.159h-4.769v19.459h-3.213v-19.459h-7.777l3.01-3.03h15.82zm-21.591 19.459l-10.867-17.352h-.102v17.352h-3.01v-21.465l3.01-1.412 10.97 17.331h.061v-15.919l3.01-1.412v22.877zm-24.11 0h-11.03l-3.889-3.97h14.694v-26.15l4.236 1.862v24.25z" stroke-width=".75"/><g stroke-width=".3"><path d="m93.67 1013.3v-3.826h-1.849l-2.715 3.826h-1.644l2.783-3.826h-1.126l-1.282-1.33v-3.383l1.282-1.33h5.956v9.869zm0-8.539h-4.421v3.383h4.421zm-9.05 8.539v-3.656h-4.707v3.656h-1.412v-8.526l1.358-1.344h4.823l1.351 1.344v8.526zm0-8.539h-4.707v3.56h4.707zm-9.592 8.539v-4.379h-4.155v4.379h-1.405v-10.04l1.405.621v3.71h4.155v-4.331l1.412.621v9.419zm-8.923 0v-7.619h-.041l-4.769 7.619h-1.351v-10.04l1.324.621v6.984h.027l4.81-7.605 1.323.621v9.419zm-9.169 2.244v-2.244h-6.331v2.244l-1.412-.621v-2.946h.989l1.624-7.782 1.644-.764h3.841v8.546h1.057v2.946zm-1.057-10.79h-2.729l-1.555 7.223h4.284zm-8.603 8.546h-5.615v-9.869h6.924l-1.31 1.33h-4.209v2.831h4.864l-1.324 1.33h-3.541v3.056h5.519z"/><path d="m134.19 1032.3v-3.826h-1.849l-2.715 3.826h-1.644l2.783-3.826h-1.126l-1.282-1.33v-3.383l1.282-1.33h5.956v9.869zm0-8.539h-4.421v3.383h4.421zm-9.05 8.539v-3.656h-4.707v3.656h-1.412v-8.526l1.358-1.344h4.823l1.351 1.344v8.526zm0-8.539h-4.707v3.56h4.707zm-9.592 8.539v-4.379h-4.155v4.379h-1.405v-10.04l1.405.621v3.71h4.155v-4.331l1.412.621v9.419zm-9.03 0v-4.379h-4.155v4.379h-1.405v-10.04l1.405.621v3.71h4.155v-4.331l1.412.621v9.419zm-8.944 0h-5l-1.33-1.323v-7.202l1.344-1.344h4.973l1.344 1.344v7.202zm-.082-8.539h-4.837v7.216h4.837zm-9.612 8.539v-7.619h-.041l-4.769 7.619h-1.351v-10.04l1.323.621v6.984h.027l4.81-7.605 1.323.621v9.419zm-9.182 2.244v-2.244h-7.05v-9.419l1.412-.621v8.717h4.584v-8.717l1.412.621v8.096h1.051v2.947zm-10.506-2.244v-3.656h-4.707v3.656h-1.412v-8.526l1.358-1.344h4.823l1.351 1.344v8.526zm0-8.539h-4.707v3.56h4.707zm-9.496 8.539v-7.7h-.041l-2.906 6.255h-1.385l-2.797-6.255h-.041v7.7h-1.324v-9.256l1.658-.784 3.186 6.903 3.37-6.903 1.603.784v9.256zm-11.393-3.622h-4.755v3.622h-1.405v-9.87h6.16l1.282 1.33v3.588zm-.13-4.918h-4.625v3.588h4.625zm-9.414 8.54h-5l-1.33-1.323v-7.202l1.344-1.344h4.973l1.344 1.344v7.202zm-.082-8.539h-4.837v7.216h4.837zm-9.517 7.585h-2.899v1.119h-1.412v-1.119h-2.927l-1.33-1.323v-5.77l1.344-1.344h2.913v-.887h1.412v.887h2.886l1.344 1.344v5.77zm-.082-7.107h-2.817v5.784h2.817zm-4.23 0h-2.845v5.784h2.845zm-7.627 8.06v-4.379h-4.155v4.379h-1.405v-10.04l1.405.621v3.71h4.155v-4.331l1.412.621v9.419zm-8.923 0v-7.619h-.041l-4.769 7.619h-1.351v-10.04l1.324.621v6.984h.027l4.81-7.605 1.324.621v9.419z"/><path d="m98.79 1051.2v-3.656h-4.707v3.656h-1.412v-8.526l1.358-1.344h4.823l1.351 1.344v8.526zm0-8.539h-4.707v3.56h4.707zm-9.496 8.539v-7.701h-.041l-2.906 6.255h-1.385l-2.797-6.255h-.041v7.701h-1.323v-9.256l1.658-.784 3.186 6.902 3.37-6.902 1.603.784v9.256zm-11.365 0h-5.614v-9.87h6.924l-1.31 1.33h-4.209v2.831h4.864l-1.323 1.33h-3.541v3.056h5.519zm-7.77-8.539h-2.094v8.539h-1.412v-8.539h-3.411l1.317-1.33h6.945zm-8.705 8.539h-4.973l-1.385-1.337v-7.189l1.385-1.344h4.891l1.31 1.33h-6.174v7.216h6.263zm-9.721 0v-7.619h-.041l-4.769 7.619h-1.351v-10.04l1.324.621v6.984h.027l4.81-7.605 1.324.621v9.419zm-8.834 0h-4.973l-1.385-1.337v-7.189l1.385-1.344h4.891l1.31 1.33h-6.174v7.216h6.263z"/></g></g></svg>